<?xml version="1.0" encoding="UTF-8" standalone="no"?><svg xmlns="http://www.w3.org/2000/svg" xmlns:xlink="http://www.w3.org/1999/xlink" contentScriptType="application/ecmascript" contentStyleType="text/css" height="144px" preserveAspectRatio="none" style="width:509px;height:144px;" version="1.1" viewBox="0 0 509 144" width="509px" zoomAndPan="magnify"><defs><filter height="300%" id="fg9m4wofgffrq" width="300%" x="-1" y="-1"><feGaussianBlur result="blurOut" stdDeviation="2.0"/><feColorMatrix in="blurOut" result="blurOut2" type="matrix" values="0 0 0 0 0 0 0 0 0 0 0 0 0 0 0 0 0 0 .4 0"/><feOffset dx="4.0" dy="4.0" in="blurOut2" result="blurOut3"/><feBlend in="SourceGraphic" in2="blurOut3" mode="normal"/></filter></defs><g><!--MD5=[3265fe36980fb766de0887c3b0bed38f]
class Sorter--><rect fill="#FEFECE" filter="url(#fg9m4wofgffrq)" height="61.8359" id="Sorter" style="stroke: #A80036; stroke-width: 1.5;" width="144" x="354.5" y="39"/><ellipse cx="405.75" cy="55" fill="#ADD1B2" rx="11" ry="11" style="stroke: #A80036; stroke-width: 1.0;"/><path d="M408.5156,50.875 Q408.6719,50.6563 408.8594,50.5469 Q409.0469,50.4375 409.2656,50.4375 Q409.6406,50.4375 409.875,50.7031 Q410.1094,50.9531 410.1094,51.5625 L410.1094,53.0156 Q410.1094,53.625 409.875,53.8906 Q409.6406,54.1563 409.2656,54.1563 Q408.9219,54.1563 408.7188,53.9531 Q408.5156,53.7656 408.4063,53.25 Q408.3594,52.8906 408.1719,52.7031 Q407.8438,52.3281 407.2344,52.1094 Q406.625,51.8906 406,51.8906 Q405.2344,51.8906 404.5938,52.2188 Q403.9688,52.5469 403.4688,53.2969 Q402.9844,54.0469 402.9844,55.0781 L402.9844,56.1719 Q402.9844,57.4063 403.875,58.2344 Q404.7656,59.0469 406.3594,59.0469 Q407.2969,59.0469 407.9531,58.7969 Q408.3438,58.6406 408.7656,58.2031 Q409.0313,57.9375 409.1719,57.8594 Q409.3281,57.7813 409.5313,57.7813 Q409.8594,57.7813 410.1094,58.0469 Q410.375,58.2969 410.375,58.6406 Q410.375,58.9844 410.0313,59.3906 Q409.5313,59.9688 408.7344,60.2969 Q407.6563,60.75 406.3594,60.75 Q404.8438,60.75 403.6406,60.125 Q402.6563,59.625 401.9688,58.5625 Q401.2813,57.4844 401.2813,56.2031 L401.2813,55.0469 Q401.2813,53.7188 401.8906,52.5781 Q402.5156,51.4219 403.6094,50.8125 Q404.7031,50.1875 405.9375,50.1875 Q406.6719,50.1875 407.3125,50.3594 Q407.9688,50.5156 408.5156,50.875 Z "/><text fill="#000000" font-family="sans-serif" font-size="12" lengthAdjust="spacingAndGlyphs" textLength="33" x="426.25" y="59.9102">Sorter</text><line style="stroke: #A80036; stroke-width: 1.5;" x1="355.5" x2="497.5" y1="71" y2="71"/><line style="stroke: #A80036; stroke-width: 1.5;" x1="355.5" x2="497.5" y1="79" y2="79"/><text fill="#000000" font-family="sans-serif" font-size="11" lengthAdjust="spacingAndGlyphs" textLength="132" x="360.5" y="94.4189">sort(array, algorithmName);</text><path d="M6,8 L6,132.4609 A0,0 0 0 0 6,132.4609 L319,132.4609 A0,0 0 0 0 319,132.4609 L319,74 L354.441,70 L319,66 L319,18 L309,8 L6,8 A0,0 0 0 0 6,8 " fill="#FBFB77" filter="url(#fg9m4wofgffrq)" style="stroke: #A80036; stroke-width: 1.0;"/><path d="M309,8 L309,18 L319,18 L309,8 " fill="#FBFB77" style="stroke: #A80036; stroke-width: 1.0;"/><text fill="#000000" font-family="sans-serif" font-size="13" lengthAdjust="spacingAndGlyphs" textLength="184" x="12" y="26.4951">void sort(array, algorithmName){</text><text fill="#000000" font-family="sans-serif" font-size="13" lengthAdjust="spacingAndGlyphs" textLength="140" x="28" y="42.8467">switch(algorithmName) {</text><text fill="#000000" font-family="sans-serif" font-size="13" lengthAdjust="spacingAndGlyphs" textLength="246" x="44" y="59.1982">case "quick" : this.quickSort(array); break;</text><text fill="#000000" font-family="sans-serif" font-size="13" lengthAdjust="spacingAndGlyphs" textLength="260" x="44" y="75.5498">case "bubble" : this.bubbleSort(array); break;</text><text fill="#000000" font-family="sans-serif" font-size="13" lengthAdjust="spacingAndGlyphs" textLength="93" x="44" y="91.9014">default: throw ...</text><text fill="#000000" font-family="sans-serif" font-size="13" lengthAdjust="spacingAndGlyphs" textLength="4" x="28" y="108.2529">}</text><text fill="#000000" font-family="sans-serif" font-size="13" lengthAdjust="spacingAndGlyphs" textLength="4" x="12" y="124.6045">}</text><!--MD5=[8822b25fd2086295b31112e28d22bd29]
@startuml openclosed

class Sorter {

    sort(array, algorithmName);
}

note left
void sort(array, algorithmName){
    switch(algorithmName) {
        case "quick" : this.quickSort(array); break;
        case "bubble" : this.bubbleSort(array); break;
        default: throw ...
    }
}
end note

@enduml

PlantUML version 1.2020.10(Sun May 17 11:35:57 CEST 2020)
(GPL source distribution)
Java Runtime: OpenJDK Runtime Environment
JVM: OpenJDK 64-Bit Server VM
Java Version: 11.0.6+10
Operating System: Windows 10
Default Encoding: Cp1252
Language: de
Country: DE
--></g></svg>