<?xml version="1.0" encoding="UTF-8" standalone="no"?><svg xmlns="http://www.w3.org/2000/svg" xmlns:xlink="http://www.w3.org/1999/xlink" contentScriptType="application/ecmascript" contentStyleType="text/css" height="311px" preserveAspectRatio="none" style="width:297px;height:311px;" version="1.1" viewBox="0 0 297 311" width="297px" zoomAndPan="magnify"><defs><filter height="300%" id="f1ndshswusfrti" width="300%" x="-1" y="-1"><feGaussianBlur result="blurOut" stdDeviation="2.0"/><feColorMatrix in="blurOut" result="blurOut2" type="matrix" values="0 0 0 0 0 0 0 0 0 0 0 0 0 0 0 0 0 0 .4 0"/><feOffset dx="4.0" dy="4.0" in="blurOut2" result="blurOut3"/><feBlend in="SourceGraphic" in2="blurOut3" mode="normal"/></filter></defs><g><!--MD5=[86cfdc25119a3a20e0664f11a0f5b002]
class Writer--><rect fill="#FEFECE" filter="url(#f1ndshswusfrti)" height="61.8359" id="Writer" style="stroke: #A80036; stroke-width: 1.5;" width="64" x="108.5" y="130"/><ellipse cx="123.5" cy="146" fill="#B4A7E5" rx="11" ry="11" style="stroke: #A80036; stroke-width: 1.0;"/><path d="M124.4531,142.6406 L124.4531,149.2969 L126.1719,149.2969 Q126.7813,149.2969 127.0469,149.5313 Q127.3125,149.7656 127.3125,150.1563 Q127.3125,150.5313 127.0469,150.7656 Q126.7813,151 126.1719,151 L121.0313,151 Q120.4219,151 120.1563,150.7656 Q119.8906,150.5313 119.8906,150.1406 Q119.8906,149.7656 120.1563,149.5313 Q120.4219,149.2969 121.0313,149.2969 L122.75,149.2969 L122.75,142.6406 L121.0313,142.6406 Q120.4219,142.6406 120.1563,142.4063 Q119.8906,142.1719 119.8906,141.7813 Q119.8906,141.4063 120.1563,141.1719 Q120.4219,140.9375 121.0313,140.9375 L126.1719,140.9375 Q126.7813,140.9375 127.0469,141.1719 Q127.3125,141.4063 127.3125,141.7813 Q127.3125,142.1719 127.0469,142.4063 Q126.7813,142.6406 126.1719,142.6406 L124.4531,142.6406 Z "/><text fill="#000000" font-family="sans-serif" font-size="12" font-style="italic" lengthAdjust="spacingAndGlyphs" textLength="32" x="137.5" y="150.9102">Writer</text><line style="stroke: #A80036; stroke-width: 1.5;" x1="109.5" x2="171.5" y1="162" y2="162"/><line style="stroke: #A80036; stroke-width: 1.5;" x1="109.5" x2="171.5" y1="170" y2="170"/><text fill="#000000" font-family="sans-serif" font-size="11" lengthAdjust="spacingAndGlyphs" textLength="33" x="114.5" y="185.4189">write()</text><!--MD5=[c42cc2f62cf2b85ed1c672168c570fb7]
class Importer--><rect fill="#FEFECE" filter="url(#f1ndshswusfrti)" height="61.8359" id="Importer" style="stroke: #A80036; stroke-width: 1.5;" width="78" x="101.5" y="8"/><ellipse cx="116.5" cy="24" fill="#ADD1B2" rx="11" ry="11" style="stroke: #A80036; stroke-width: 1.0;"/><path d="M119.2656,19.875 Q119.4219,19.6563 119.6094,19.5469 Q119.7969,19.4375 120.0156,19.4375 Q120.3906,19.4375 120.625,19.7031 Q120.8594,19.9531 120.8594,20.5625 L120.8594,22.0156 Q120.8594,22.625 120.625,22.8906 Q120.3906,23.1563 120.0156,23.1563 Q119.6719,23.1563 119.4688,22.9531 Q119.2656,22.7656 119.1563,22.25 Q119.1094,21.8906 118.9219,21.7031 Q118.5938,21.3281 117.9844,21.1094 Q117.375,20.8906 116.75,20.8906 Q115.9844,20.8906 115.3438,21.2188 Q114.7188,21.5469 114.2188,22.2969 Q113.7344,23.0469 113.7344,24.0781 L113.7344,25.1719 Q113.7344,26.4063 114.625,27.2344 Q115.5156,28.0469 117.1094,28.0469 Q118.0469,28.0469 118.7031,27.7969 Q119.0938,27.6406 119.5156,27.2031 Q119.7813,26.9375 119.9219,26.8594 Q120.0781,26.7813 120.2813,26.7813 Q120.6094,26.7813 120.8594,27.0469 Q121.125,27.2969 121.125,27.6406 Q121.125,27.9844 120.7813,28.3906 Q120.2813,28.9688 119.4844,29.2969 Q118.4063,29.75 117.1094,29.75 Q115.5938,29.75 114.3906,29.125 Q113.4063,28.625 112.7188,27.5625 Q112.0313,26.4844 112.0313,25.2031 L112.0313,24.0469 Q112.0313,22.7188 112.6406,21.5781 Q113.2656,20.4219 114.3594,19.8125 Q115.4531,19.1875 116.6875,19.1875 Q117.4219,19.1875 118.0625,19.3594 Q118.7188,19.5156 119.2656,19.875 Z "/><text fill="#000000" font-family="sans-serif" font-size="12" lengthAdjust="spacingAndGlyphs" textLength="46" x="130.5" y="28.9102">Importer</text><line style="stroke: #A80036; stroke-width: 1.5;" x1="102.5" x2="178.5" y1="40" y2="40"/><line style="stroke: #A80036; stroke-width: 1.5;" x1="102.5" x2="178.5" y1="48" y2="48"/><text fill="#000000" font-family="sans-serif" font-size="11" lengthAdjust="spacingAndGlyphs" textLength="65" x="107.5" y="63.4189">writer.write()</text><!--MD5=[524b730f48c8e4013583f71c81d34931]
class FileRepository--><rect fill="#FEFECE" filter="url(#f1ndshswusfrti)" height="48" id="FileRepository" style="stroke: #A80036; stroke-width: 1.5;" width="111" x="6" y="252"/><ellipse cx="21" cy="268" fill="#ADD1B2" rx="11" ry="11" style="stroke: #A80036; stroke-width: 1.0;"/><path d="M23.7656,263.875 Q23.9219,263.6563 24.1094,263.5469 Q24.2969,263.4375 24.5156,263.4375 Q24.8906,263.4375 25.125,263.7031 Q25.3594,263.9531 25.3594,264.5625 L25.3594,266.0156 Q25.3594,266.625 25.125,266.8906 Q24.8906,267.1563 24.5156,267.1563 Q24.1719,267.1563 23.9688,266.9531 Q23.7656,266.7656 23.6563,266.25 Q23.6094,265.8906 23.4219,265.7031 Q23.0938,265.3281 22.4844,265.1094 Q21.875,264.8906 21.25,264.8906 Q20.4844,264.8906 19.8438,265.2188 Q19.2188,265.5469 18.7188,266.2969 Q18.2344,267.0469 18.2344,268.0781 L18.2344,269.1719 Q18.2344,270.4063 19.125,271.2344 Q20.0156,272.0469 21.6094,272.0469 Q22.5469,272.0469 23.2031,271.7969 Q23.5938,271.6406 24.0156,271.2031 Q24.2813,270.9375 24.4219,270.8594 Q24.5781,270.7813 24.7813,270.7813 Q25.1094,270.7813 25.3594,271.0469 Q25.625,271.2969 25.625,271.6406 Q25.625,271.9844 25.2813,272.3906 Q24.7813,272.9688 23.9844,273.2969 Q22.9063,273.75 21.6094,273.75 Q20.0938,273.75 18.8906,273.125 Q17.9063,272.625 17.2188,271.5625 Q16.5313,270.4844 16.5313,269.2031 L16.5313,268.0469 Q16.5313,266.7188 17.1406,265.5781 Q17.7656,264.4219 18.8594,263.8125 Q19.9531,263.1875 21.1875,263.1875 Q21.9219,263.1875 22.5625,263.3594 Q23.2188,263.5156 23.7656,263.875 Z "/><text fill="#000000" font-family="sans-serif" font-size="12" lengthAdjust="spacingAndGlyphs" textLength="79" x="35" y="272.9102">FileRepository</text><line style="stroke: #A80036; stroke-width: 1.5;" x1="7" x2="116" y1="284" y2="284"/><line style="stroke: #A80036; stroke-width: 1.5;" x1="7" x2="116" y1="292" y2="292"/><!--MD5=[5b6c2c17180a2d13a0475e092e40c03b]
class MemoryRepository--><rect fill="#FEFECE" filter="url(#f1ndshswusfrti)" height="48" id="MemoryRepository" style="stroke: #A80036; stroke-width: 1.5;" width="134" x="152.5" y="252"/><ellipse cx="167.5" cy="268" fill="#ADD1B2" rx="11" ry="11" style="stroke: #A80036; stroke-width: 1.0;"/><path d="M170.2656,263.875 Q170.4219,263.6563 170.6094,263.5469 Q170.7969,263.4375 171.0156,263.4375 Q171.3906,263.4375 171.625,263.7031 Q171.8594,263.9531 171.8594,264.5625 L171.8594,266.0156 Q171.8594,266.625 171.625,266.8906 Q171.3906,267.1563 171.0156,267.1563 Q170.6719,267.1563 170.4688,266.9531 Q170.2656,266.7656 170.1563,266.25 Q170.1094,265.8906 169.9219,265.7031 Q169.5938,265.3281 168.9844,265.1094 Q168.375,264.8906 167.75,264.8906 Q166.9844,264.8906 166.3438,265.2188 Q165.7188,265.5469 165.2188,266.2969 Q164.7344,267.0469 164.7344,268.0781 L164.7344,269.1719 Q164.7344,270.4063 165.625,271.2344 Q166.5156,272.0469 168.1094,272.0469 Q169.0469,272.0469 169.7031,271.7969 Q170.0938,271.6406 170.5156,271.2031 Q170.7813,270.9375 170.9219,270.8594 Q171.0781,270.7813 171.2813,270.7813 Q171.6094,270.7813 171.8594,271.0469 Q172.125,271.2969 172.125,271.6406 Q172.125,271.9844 171.7813,272.3906 Q171.2813,272.9688 170.4844,273.2969 Q169.4063,273.75 168.1094,273.75 Q166.5938,273.75 165.3906,273.125 Q164.4063,272.625 163.7188,271.5625 Q163.0313,270.4844 163.0313,269.2031 L163.0313,268.0469 Q163.0313,266.7188 163.6406,265.5781 Q164.2656,264.4219 165.3594,263.8125 Q166.4531,263.1875 167.6875,263.1875 Q168.4219,263.1875 169.0625,263.3594 Q169.7188,263.5156 170.2656,263.875 Z "/><text fill="#000000" font-family="sans-serif" font-size="12" lengthAdjust="spacingAndGlyphs" textLength="102" x="181.5" y="272.9102">MemoryRepository</text><line style="stroke: #A80036; stroke-width: 1.5;" x1="153.5" x2="285.5" y1="284" y2="284"/><line style="stroke: #A80036; stroke-width: 1.5;" x1="153.5" x2="285.5" y1="292" y2="292"/><!--MD5=[a3981c6f3863281dd9e5cc04450dfa1c]
link Importer to Writer--><path d="M140.5,70.281 C140.5,86.767 140.5,107.257 140.5,124.492 " fill="none" id="Importer-&gt;Writer" style="stroke: #A80036; stroke-width: 1.0; stroke-dasharray: 7.0,7.0;"/><polygon fill="#A80036" points="140.5,129.729,144.5,120.729,140.5,124.729,136.5,120.729,140.5,129.729" style="stroke: #A80036; stroke-width: 1.0;"/><!--MD5=[be563f5fd903c565358d784d5ee983fa]
reverse link Writer to FileRepository--><path d="M107.66,208.9736 C97.3242,223.7578 86.3618,239.4382 77.7148,251.8067 " fill="none" id="Writer&lt;-FileRepository" style="stroke: #A80036; stroke-width: 1.0;"/><polygon fill="none" points="102.1329,204.6626,119.329,192.282,113.607,212.6842,102.1329,204.6626" style="stroke: #A80036; stroke-width: 1.0;"/><!--MD5=[0c08dc2d4cbcc26a7b2738a09f6657c5]
reverse link Writer to MemoryRepository--><path d="M173.34,208.9736 C183.676,223.7578 194.638,239.4382 203.285,251.8067 " fill="none" id="Writer&lt;-MemoryRepository" style="stroke: #A80036; stroke-width: 1.0;"/><polygon fill="none" points="167.393,212.6842,161.671,192.282,178.867,204.6626,167.393,212.6842" style="stroke: #A80036; stroke-width: 1.0;"/><!--MD5=[ad7749b08d275dc7f281d8dc094d11b8]
@startuml di

interface Writer {
    write()
}

class Importer {
    writer.write()
}


Importer ..> Writer
Writer <|- - FileRepository
Writer <|- - MemoryRepository

@enduml

PlantUML version 1.2020.10(Sun May 17 11:35:57 CEST 2020)
(GPL source distribution)
Java Runtime: OpenJDK Runtime Environment
JVM: OpenJDK 64-Bit Server VM
Java Version: 11.0.6+10
Operating System: Windows 10
Default Encoding: Cp1252
Language: de
Country: DE
--></g></svg>