<?xml version="1.0" encoding="UTF-8" standalone="no"?><svg xmlns="http://www.w3.org/2000/svg" xmlns:xlink="http://www.w3.org/1999/xlink" contentScriptType="application/ecmascript" contentStyleType="text/css" height="297px" preserveAspectRatio="none" style="width:306px;height:297px;" version="1.1" viewBox="0 0 306 297" width="306px" zoomAndPan="magnify"><defs><filter height="300%" id="f1pawn9ofot08h" width="300%" x="-1" y="-1"><feGaussianBlur result="blurOut" stdDeviation="2.0"/><feColorMatrix in="blurOut" result="blurOut2" type="matrix" values="0 0 0 0 0 0 0 0 0 0 0 0 0 0 0 0 0 0 .4 0"/><feOffset dx="4.0" dy="4.0" in="blurOut2" result="blurOut3"/><feBlend in="SourceGraphic" in2="blurOut3" mode="normal"/></filter></defs><g><!--MD5=[e86a4777f2c0372cf9fb3cd047e1466e]
class Reader--><rect fill="#FEFECE" filter="url(#f1pawn9ofot08h)" height="61.8359" id="Reader" style="stroke: #A80036; stroke-width: 1.5;" width="73" x="116.5" y="116"/><ellipse cx="131.5" cy="132" fill="#B4A7E5" rx="11" ry="11" style="stroke: #A80036; stroke-width: 1.0;"/><path d="M132.4531,128.6406 L132.4531,135.2969 L134.1719,135.2969 Q134.7813,135.2969 135.0469,135.5313 Q135.3125,135.7656 135.3125,136.1563 Q135.3125,136.5313 135.0469,136.7656 Q134.7813,137 134.1719,137 L129.0313,137 Q128.4219,137 128.1563,136.7656 Q127.8906,136.5313 127.8906,136.1406 Q127.8906,135.7656 128.1563,135.5313 Q128.4219,135.2969 129.0313,135.2969 L130.75,135.2969 L130.75,128.6406 L129.0313,128.6406 Q128.4219,128.6406 128.1563,128.4063 Q127.8906,128.1719 127.8906,127.7813 Q127.8906,127.4063 128.1563,127.1719 Q128.4219,126.9375 129.0313,126.9375 L134.1719,126.9375 Q134.7813,126.9375 135.0469,127.1719 Q135.3125,127.4063 135.3125,127.7813 Q135.3125,128.1719 135.0469,128.4063 Q134.7813,128.6406 134.1719,128.6406 L132.4531,128.6406 Z "/><text fill="#000000" font-family="sans-serif" font-size="12" font-style="italic" lengthAdjust="spacingAndGlyphs" textLength="41" x="145.5" y="136.9102">Reader</text><line style="stroke: #A80036; stroke-width: 1.5;" x1="117.5" x2="188.5" y1="148" y2="148"/><line style="stroke: #A80036; stroke-width: 1.5;" x1="117.5" x2="188.5" y1="156" y2="156"/><text fill="#000000" font-family="sans-serif" font-size="11" lengthAdjust="spacingAndGlyphs" textLength="30" x="122.5" y="171.4189">read()</text><!--MD5=[86cfdc25119a3a20e0664f11a0f5b002]
class Writer--><rect fill="#FEFECE" filter="url(#f1pawn9ofot08h)" height="61.8359" id="Writer" style="stroke: #A80036; stroke-width: 1.5;" width="64" x="15" y="116"/><ellipse cx="30" cy="132" fill="#B4A7E5" rx="11" ry="11" style="stroke: #A80036; stroke-width: 1.0;"/><path d="M30.9531,128.6406 L30.9531,135.2969 L32.6719,135.2969 Q33.2813,135.2969 33.5469,135.5313 Q33.8125,135.7656 33.8125,136.1563 Q33.8125,136.5313 33.5469,136.7656 Q33.2813,137 32.6719,137 L27.5313,137 Q26.9219,137 26.6563,136.7656 Q26.3906,136.5313 26.3906,136.1406 Q26.3906,135.7656 26.6563,135.5313 Q26.9219,135.2969 27.5313,135.2969 L29.25,135.2969 L29.25,128.6406 L27.5313,128.6406 Q26.9219,128.6406 26.6563,128.4063 Q26.3906,128.1719 26.3906,127.7813 Q26.3906,127.4063 26.6563,127.1719 Q26.9219,126.9375 27.5313,126.9375 L32.6719,126.9375 Q33.2813,126.9375 33.5469,127.1719 Q33.8125,127.4063 33.8125,127.7813 Q33.8125,128.1719 33.5469,128.4063 Q33.2813,128.6406 32.6719,128.6406 L30.9531,128.6406 Z "/><text fill="#000000" font-family="sans-serif" font-size="12" font-style="italic" lengthAdjust="spacingAndGlyphs" textLength="32" x="44" y="136.9102">Writer</text><line style="stroke: #A80036; stroke-width: 1.5;" x1="16" x2="78" y1="148" y2="148"/><line style="stroke: #A80036; stroke-width: 1.5;" x1="16" x2="78" y1="156" y2="156"/><text fill="#000000" font-family="sans-serif" font-size="11" lengthAdjust="spacingAndGlyphs" textLength="33" x="21" y="171.4189">write()</text><!--MD5=[1069fdaf3fc729635ca39f624d53ab3a]
class DataRepository--><rect fill="#FEFECE" filter="url(#f1pawn9ofot08h)" height="48" id="DataRepository" style="stroke: #A80036; stroke-width: 1.5;" width="117" x="42.5" y="238"/><ellipse cx="57.5" cy="254" fill="#ADD1B2" rx="11" ry="11" style="stroke: #A80036; stroke-width: 1.0;"/><path d="M60.2656,249.875 Q60.4219,249.6563 60.6094,249.5469 Q60.7969,249.4375 61.0156,249.4375 Q61.3906,249.4375 61.625,249.7031 Q61.8594,249.9531 61.8594,250.5625 L61.8594,252.0156 Q61.8594,252.625 61.625,252.8906 Q61.3906,253.1563 61.0156,253.1563 Q60.6719,253.1563 60.4688,252.9531 Q60.2656,252.7656 60.1563,252.25 Q60.1094,251.8906 59.9219,251.7031 Q59.5938,251.3281 58.9844,251.1094 Q58.375,250.8906 57.75,250.8906 Q56.9844,250.8906 56.3438,251.2188 Q55.7188,251.5469 55.2188,252.2969 Q54.7344,253.0469 54.7344,254.0781 L54.7344,255.1719 Q54.7344,256.4063 55.625,257.2344 Q56.5156,258.0469 58.1094,258.0469 Q59.0469,258.0469 59.7031,257.7969 Q60.0938,257.6406 60.5156,257.2031 Q60.7813,256.9375 60.9219,256.8594 Q61.0781,256.7813 61.2813,256.7813 Q61.6094,256.7813 61.8594,257.0469 Q62.125,257.2969 62.125,257.6406 Q62.125,257.9844 61.7813,258.3906 Q61.2813,258.9688 60.4844,259.2969 Q59.4063,259.75 58.1094,259.75 Q56.5938,259.75 55.3906,259.125 Q54.4063,258.625 53.7188,257.5625 Q53.0313,256.4844 53.0313,255.2031 L53.0313,254.0469 Q53.0313,252.7188 53.6406,251.5781 Q54.2656,250.4219 55.3594,249.8125 Q56.4531,249.1875 57.6875,249.1875 Q58.4219,249.1875 59.0625,249.3594 Q59.7188,249.5156 60.2656,249.875 Z "/><text fill="#000000" font-family="sans-serif" font-size="12" lengthAdjust="spacingAndGlyphs" textLength="85" x="71.5" y="258.9102">DataRepository</text><line style="stroke: #A80036; stroke-width: 1.5;" x1="43.5" x2="158.5" y1="270" y2="270"/><line style="stroke: #A80036; stroke-width: 1.5;" x1="43.5" x2="158.5" y1="278" y2="278"/><!--MD5=[69f2f3ad3645114d26612368d508f737]
class Printer--><rect fill="#FEFECE" filter="url(#f1pawn9ofot08h)" height="48" id="Printer" style="stroke: #A80036; stroke-width: 1.5;" width="68" x="119" y="8"/><ellipse cx="134" cy="24" fill="#ADD1B2" rx="11" ry="11" style="stroke: #A80036; stroke-width: 1.0;"/><path d="M136.7656,19.875 Q136.9219,19.6563 137.1094,19.5469 Q137.2969,19.4375 137.5156,19.4375 Q137.8906,19.4375 138.125,19.7031 Q138.3594,19.9531 138.3594,20.5625 L138.3594,22.0156 Q138.3594,22.625 138.125,22.8906 Q137.8906,23.1563 137.5156,23.1563 Q137.1719,23.1563 136.9688,22.9531 Q136.7656,22.7656 136.6563,22.25 Q136.6094,21.8906 136.4219,21.7031 Q136.0938,21.3281 135.4844,21.1094 Q134.875,20.8906 134.25,20.8906 Q133.4844,20.8906 132.8438,21.2188 Q132.2188,21.5469 131.7188,22.2969 Q131.2344,23.0469 131.2344,24.0781 L131.2344,25.1719 Q131.2344,26.4063 132.125,27.2344 Q133.0156,28.0469 134.6094,28.0469 Q135.5469,28.0469 136.2031,27.7969 Q136.5938,27.6406 137.0156,27.2031 Q137.2813,26.9375 137.4219,26.8594 Q137.5781,26.7813 137.7813,26.7813 Q138.1094,26.7813 138.3594,27.0469 Q138.625,27.2969 138.625,27.6406 Q138.625,27.9844 138.2813,28.3906 Q137.7813,28.9688 136.9844,29.2969 Q135.9063,29.75 134.6094,29.75 Q133.0938,29.75 131.8906,29.125 Q130.9063,28.625 130.2188,27.5625 Q129.5313,26.4844 129.5313,25.2031 L129.5313,24.0469 Q129.5313,22.7188 130.1406,21.5781 Q130.7656,20.4219 131.8594,19.8125 Q132.9531,19.1875 134.1875,19.1875 Q134.9219,19.1875 135.5625,19.3594 Q136.2188,19.5156 136.7656,19.875 Z "/><text fill="#000000" font-family="sans-serif" font-size="12" lengthAdjust="spacingAndGlyphs" textLength="36" x="148" y="28.9102">Printer</text><line style="stroke: #A80036; stroke-width: 1.5;" x1="120" x2="186" y1="40" y2="40"/><line style="stroke: #A80036; stroke-width: 1.5;" x1="120" x2="186" y1="48" y2="48"/><!--MD5=[292033ffe4750640675b59034298e578]
class Display--><rect fill="#FEFECE" filter="url(#f1pawn9ofot08h)" height="48" id="Display" style="stroke: #A80036; stroke-width: 1.5;" width="73" x="222.5" y="8"/><ellipse cx="237.5" cy="24" fill="#ADD1B2" rx="11" ry="11" style="stroke: #A80036; stroke-width: 1.0;"/><path d="M240.2656,19.875 Q240.4219,19.6563 240.6094,19.5469 Q240.7969,19.4375 241.0156,19.4375 Q241.3906,19.4375 241.625,19.7031 Q241.8594,19.9531 241.8594,20.5625 L241.8594,22.0156 Q241.8594,22.625 241.625,22.8906 Q241.3906,23.1563 241.0156,23.1563 Q240.6719,23.1563 240.4688,22.9531 Q240.2656,22.7656 240.1563,22.25 Q240.1094,21.8906 239.9219,21.7031 Q239.5938,21.3281 238.9844,21.1094 Q238.375,20.8906 237.75,20.8906 Q236.9844,20.8906 236.3438,21.2188 Q235.7188,21.5469 235.2188,22.2969 Q234.7344,23.0469 234.7344,24.0781 L234.7344,25.1719 Q234.7344,26.4063 235.625,27.2344 Q236.5156,28.0469 238.1094,28.0469 Q239.0469,28.0469 239.7031,27.7969 Q240.0938,27.6406 240.5156,27.2031 Q240.7813,26.9375 240.9219,26.8594 Q241.0781,26.7813 241.2813,26.7813 Q241.6094,26.7813 241.8594,27.0469 Q242.125,27.2969 242.125,27.6406 Q242.125,27.9844 241.7813,28.3906 Q241.2813,28.9688 240.4844,29.2969 Q239.4063,29.75 238.1094,29.75 Q236.5938,29.75 235.3906,29.125 Q234.4063,28.625 233.7188,27.5625 Q233.0313,26.4844 233.0313,25.2031 L233.0313,24.0469 Q233.0313,22.7188 233.6406,21.5781 Q234.2656,20.4219 235.3594,19.8125 Q236.4531,19.1875 237.6875,19.1875 Q238.4219,19.1875 239.0625,19.3594 Q239.7188,19.5156 240.2656,19.875 Z "/><text fill="#000000" font-family="sans-serif" font-size="12" lengthAdjust="spacingAndGlyphs" textLength="41" x="251.5" y="28.9102">Display</text><line style="stroke: #A80036; stroke-width: 1.5;" x1="223.5" x2="294.5" y1="40" y2="40"/><line style="stroke: #A80036; stroke-width: 1.5;" x1="223.5" x2="294.5" y1="48" y2="48"/><!--MD5=[c42cc2f62cf2b85ed1c672168c570fb7]
class Importer--><rect fill="#FEFECE" filter="url(#f1pawn9ofot08h)" height="48" id="Importer" style="stroke: #A80036; stroke-width: 1.5;" width="78" x="6" y="8"/><ellipse cx="21" cy="24" fill="#ADD1B2" rx="11" ry="11" style="stroke: #A80036; stroke-width: 1.0;"/><path d="M23.7656,19.875 Q23.9219,19.6563 24.1094,19.5469 Q24.2969,19.4375 24.5156,19.4375 Q24.8906,19.4375 25.125,19.7031 Q25.3594,19.9531 25.3594,20.5625 L25.3594,22.0156 Q25.3594,22.625 25.125,22.8906 Q24.8906,23.1563 24.5156,23.1563 Q24.1719,23.1563 23.9688,22.9531 Q23.7656,22.7656 23.6563,22.25 Q23.6094,21.8906 23.4219,21.7031 Q23.0938,21.3281 22.4844,21.1094 Q21.875,20.8906 21.25,20.8906 Q20.4844,20.8906 19.8438,21.2188 Q19.2188,21.5469 18.7188,22.2969 Q18.2344,23.0469 18.2344,24.0781 L18.2344,25.1719 Q18.2344,26.4063 19.125,27.2344 Q20.0156,28.0469 21.6094,28.0469 Q22.5469,28.0469 23.2031,27.7969 Q23.5938,27.6406 24.0156,27.2031 Q24.2813,26.9375 24.4219,26.8594 Q24.5781,26.7813 24.7813,26.7813 Q25.1094,26.7813 25.3594,27.0469 Q25.625,27.2969 25.625,27.6406 Q25.625,27.9844 25.2813,28.3906 Q24.7813,28.9688 23.9844,29.2969 Q22.9063,29.75 21.6094,29.75 Q20.0938,29.75 18.8906,29.125 Q17.9063,28.625 17.2188,27.5625 Q16.5313,26.4844 16.5313,25.2031 L16.5313,24.0469 Q16.5313,22.7188 17.1406,21.5781 Q17.7656,20.4219 18.8594,19.8125 Q19.9531,19.1875 21.1875,19.1875 Q21.9219,19.1875 22.5625,19.3594 Q23.2188,19.5156 23.7656,19.875 Z "/><text fill="#000000" font-family="sans-serif" font-size="12" lengthAdjust="spacingAndGlyphs" textLength="46" x="35" y="28.9102">Importer</text><line style="stroke: #A80036; stroke-width: 1.5;" x1="7" x2="83" y1="40" y2="40"/><line style="stroke: #A80036; stroke-width: 1.5;" x1="7" x2="83" y1="48" y2="48"/><!--MD5=[a3981c6f3863281dd9e5cc04450dfa1c]
link Importer to Writer--><path d="M45.4096,56.14 C45.685,71.705 46.0537,92.533 46.3667,110.218 " fill="none" id="Importer-&gt;Writer" style="stroke: #A80036; stroke-width: 1.0; stroke-dasharray: 7.0,7.0;"/><polygon fill="#A80036" points="46.4619,115.596,50.3018,106.5266,46.3733,110.5968,42.3031,106.6683,46.4619,115.596" style="stroke: #A80036; stroke-width: 1.0;"/><!--MD5=[1a2d07850a85e268bf20027cd9d1b2ce]
link Printer to Reader--><path d="M153,56.14 C153,71.705 153,92.533 153,110.218 " fill="none" id="Printer-&gt;Reader" style="stroke: #A80036; stroke-width: 1.0; stroke-dasharray: 7.0,7.0;"/><polygon fill="#A80036" points="153,115.596,157,106.596,153,110.596,149,106.596,153,115.596" style="stroke: #A80036; stroke-width: 1.0;"/><!--MD5=[e5ff836d9ee9e324de4acb5b0d898e51]
link Display to Reader--><path d="M237.294,56.14 C222.315,72.108 202.141,93.614 185.284,111.584 " fill="none" id="Display-&gt;Reader" style="stroke: #A80036; stroke-width: 1.0; stroke-dasharray: 7.0,7.0;"/><polygon fill="#A80036" points="181.52,115.596,190.5949,111.7689,184.9409,111.9494,184.7604,106.2955,181.52,115.596" style="stroke: #A80036; stroke-width: 1.0;"/><!--MD5=[e2f908f44b5752b798fb85aa1a8c1320]
reverse link Reader to DataRepository--><path d="M130.494,196.9067 C123.956,211.1151 117.117,225.976 111.673,237.8067 " fill="none" id="Reader&lt;-DataRepository" style="stroke: #A80036; stroke-width: 1.0;"/><polygon fill="none" points="124.345,193.5242,139.065,178.282,137.063,199.3768,124.345,193.5242" style="stroke: #A80036; stroke-width: 1.0;"/><!--MD5=[a35ffb9e8b924d816ac91f271231deef]
reverse link Writer to DataRepository--><path d="M70.14,196.4226 C76.9996,210.777 84.1986,225.8415 89.9165,237.8067 " fill="none" id="Writer&lt;-DataRepository" style="stroke: #A80036; stroke-width: 1.0;"/><polygon fill="none" points="63.7786,199.3456,61.471,178.282,76.4104,193.3091,63.7786,199.3456" style="stroke: #A80036; stroke-width: 1.0;"/><!--MD5=[3d46de315b14507c8cd291d05840b513]
@startuml interface-segregation

interface Reader {
    read()
}

interface Writer {
    write()
}

class DataRepository

class Printer
class Display
class Importer


Importer ..> Writer
Printer ..> Reader
Display ..> Reader

Reader <|- - DataRepository
Writer <|- - DataRepository

@enduml

PlantUML version 1.2020.10(Sun May 17 11:35:57 CEST 2020)
(GPL source distribution)
Java Runtime: OpenJDK Runtime Environment
JVM: OpenJDK 64-Bit Server VM
Java Version: 11.0.6+10
Operating System: Windows 10
Default Encoding: Cp1252
Language: de
Country: DE
--></g></svg>