<?xml version="1.0" encoding="UTF-8" standalone="no"?><svg xmlns="http://www.w3.org/2000/svg" xmlns:xlink="http://www.w3.org/1999/xlink" contentScriptType="application/ecmascript" contentStyleType="text/css" height="325px" preserveAspectRatio="none" style="width:307px;height:325px;" version="1.1" viewBox="0 0 307 325" width="307px" zoomAndPan="magnify"><defs><filter height="300%" id="fo1dxcp7he0f2" width="300%" x="-1" y="-1"><feGaussianBlur result="blurOut" stdDeviation="2.0"/><feColorMatrix in="blurOut" result="blurOut2" type="matrix" values="0 0 0 0 0 0 0 0 0 0 0 0 0 0 0 0 0 0 .4 0"/><feOffset dx="4.0" dy="4.0" in="blurOut2" result="blurOut3"/><feBlend in="SourceGraphic" in2="blurOut3" mode="normal"/></filter></defs><g><!--MD5=[c05f8d4c5007184b0fb1ea93cdb8d9fe]
class Repository--><rect fill="#FEFECE" filter="url(#fo1dxcp7he0f2)" height="75.6719" id="Repository" style="stroke: #A80036; stroke-width: 1.5;" width="91" x="100.5" y="130"/><ellipse cx="115.5" cy="146" fill="#B4A7E5" rx="11" ry="11" style="stroke: #A80036; stroke-width: 1.0;"/><path d="M116.4531,142.6406 L116.4531,149.2969 L118.1719,149.2969 Q118.7813,149.2969 119.0469,149.5313 Q119.3125,149.7656 119.3125,150.1563 Q119.3125,150.5313 119.0469,150.7656 Q118.7813,151 118.1719,151 L113.0313,151 Q112.4219,151 112.1563,150.7656 Q111.8906,150.5313 111.8906,150.1406 Q111.8906,149.7656 112.1563,149.5313 Q112.4219,149.2969 113.0313,149.2969 L114.75,149.2969 L114.75,142.6406 L113.0313,142.6406 Q112.4219,142.6406 112.1563,142.4063 Q111.8906,142.1719 111.8906,141.7813 Q111.8906,141.4063 112.1563,141.1719 Q112.4219,140.9375 113.0313,140.9375 L118.1719,140.9375 Q118.7813,140.9375 119.0469,141.1719 Q119.3125,141.4063 119.3125,141.7813 Q119.3125,142.1719 119.0469,142.4063 Q118.7813,142.6406 118.1719,142.6406 L116.4531,142.6406 Z "/><text fill="#000000" font-family="sans-serif" font-size="12" font-style="italic" lengthAdjust="spacingAndGlyphs" textLength="59" x="129.5" y="150.9102">Repository</text><line style="stroke: #A80036; stroke-width: 1.5;" x1="101.5" x2="190.5" y1="162" y2="162"/><line style="stroke: #A80036; stroke-width: 1.5;" x1="101.5" x2="190.5" y1="170" y2="170"/><text fill="#000000" font-family="sans-serif" font-size="11" lengthAdjust="spacingAndGlyphs" textLength="30" x="106.5" y="185.4189">read()</text><text fill="#000000" font-family="sans-serif" font-size="11" lengthAdjust="spacingAndGlyphs" textLength="33" x="106.5" y="199.2549">write()</text><!--MD5=[1069fdaf3fc729635ca39f624d53ab3a]
class DataRepository--><rect fill="#FEFECE" filter="url(#fo1dxcp7he0f2)" height="48" id="DataRepository" style="stroke: #A80036; stroke-width: 1.5;" width="117" x="87.5" y="266"/><ellipse cx="102.5" cy="282" fill="#ADD1B2" rx="11" ry="11" style="stroke: #A80036; stroke-width: 1.0;"/><path d="M105.2656,277.875 Q105.4219,277.6563 105.6094,277.5469 Q105.7969,277.4375 106.0156,277.4375 Q106.3906,277.4375 106.625,277.7031 Q106.8594,277.9531 106.8594,278.5625 L106.8594,280.0156 Q106.8594,280.625 106.625,280.8906 Q106.3906,281.1563 106.0156,281.1563 Q105.6719,281.1563 105.4688,280.9531 Q105.2656,280.7656 105.1563,280.25 Q105.1094,279.8906 104.9219,279.7031 Q104.5938,279.3281 103.9844,279.1094 Q103.375,278.8906 102.75,278.8906 Q101.9844,278.8906 101.3438,279.2188 Q100.7188,279.5469 100.2188,280.2969 Q99.7344,281.0469 99.7344,282.0781 L99.7344,283.1719 Q99.7344,284.4063 100.625,285.2344 Q101.5156,286.0469 103.1094,286.0469 Q104.0469,286.0469 104.7031,285.7969 Q105.0938,285.6406 105.5156,285.2031 Q105.7813,284.9375 105.9219,284.8594 Q106.0781,284.7813 106.2813,284.7813 Q106.6094,284.7813 106.8594,285.0469 Q107.125,285.2969 107.125,285.6406 Q107.125,285.9844 106.7813,286.3906 Q106.2813,286.9688 105.4844,287.2969 Q104.4063,287.75 103.1094,287.75 Q101.5938,287.75 100.3906,287.125 Q99.4063,286.625 98.7188,285.5625 Q98.0313,284.4844 98.0313,283.2031 L98.0313,282.0469 Q98.0313,280.7188 98.6406,279.5781 Q99.2656,278.4219 100.3594,277.8125 Q101.4531,277.1875 102.6875,277.1875 Q103.4219,277.1875 104.0625,277.3594 Q104.7188,277.5156 105.2656,277.875 Z "/><text fill="#000000" font-family="sans-serif" font-size="12" lengthAdjust="spacingAndGlyphs" textLength="85" x="116.5" y="286.9102">DataRepository</text><line style="stroke: #A80036; stroke-width: 1.5;" x1="88.5" x2="203.5" y1="298" y2="298"/><line style="stroke: #A80036; stroke-width: 1.5;" x1="88.5" x2="203.5" y1="306" y2="306"/><!--MD5=[69f2f3ad3645114d26612368d508f737]
class Printer--><rect fill="#FEFECE" filter="url(#fo1dxcp7he0f2)" height="61.8359" id="Printer" style="stroke: #A80036; stroke-width: 1.5;" width="68" x="6" y="8"/><ellipse cx="21" cy="24" fill="#ADD1B2" rx="11" ry="11" style="stroke: #A80036; stroke-width: 1.0;"/><path d="M23.7656,19.875 Q23.9219,19.6563 24.1094,19.5469 Q24.2969,19.4375 24.5156,19.4375 Q24.8906,19.4375 25.125,19.7031 Q25.3594,19.9531 25.3594,20.5625 L25.3594,22.0156 Q25.3594,22.625 25.125,22.8906 Q24.8906,23.1563 24.5156,23.1563 Q24.1719,23.1563 23.9688,22.9531 Q23.7656,22.7656 23.6563,22.25 Q23.6094,21.8906 23.4219,21.7031 Q23.0938,21.3281 22.4844,21.1094 Q21.875,20.8906 21.25,20.8906 Q20.4844,20.8906 19.8438,21.2188 Q19.2188,21.5469 18.7188,22.2969 Q18.2344,23.0469 18.2344,24.0781 L18.2344,25.1719 Q18.2344,26.4063 19.125,27.2344 Q20.0156,28.0469 21.6094,28.0469 Q22.5469,28.0469 23.2031,27.7969 Q23.5938,27.6406 24.0156,27.2031 Q24.2813,26.9375 24.4219,26.8594 Q24.5781,26.7813 24.7813,26.7813 Q25.1094,26.7813 25.3594,27.0469 Q25.625,27.2969 25.625,27.6406 Q25.625,27.9844 25.2813,28.3906 Q24.7813,28.9688 23.9844,29.2969 Q22.9063,29.75 21.6094,29.75 Q20.0938,29.75 18.8906,29.125 Q17.9063,28.625 17.2188,27.5625 Q16.5313,26.4844 16.5313,25.2031 L16.5313,24.0469 Q16.5313,22.7188 17.1406,21.5781 Q17.7656,20.4219 18.8594,19.8125 Q19.9531,19.1875 21.1875,19.1875 Q21.9219,19.1875 22.5625,19.3594 Q23.2188,19.5156 23.7656,19.875 Z "/><text fill="#000000" font-family="sans-serif" font-size="12" lengthAdjust="spacingAndGlyphs" textLength="36" x="35" y="28.9102">Printer</text><line style="stroke: #A80036; stroke-width: 1.5;" x1="7" x2="73" y1="40" y2="40"/><line style="stroke: #A80036; stroke-width: 1.5;" x1="7" x2="73" y1="48" y2="48"/><text fill="#000000" font-family="sans-serif" font-size="11" lengthAdjust="spacingAndGlyphs" textLength="55" x="12" y="63.4189">repo.read()</text><!--MD5=[292033ffe4750640675b59034298e578]
class Display--><rect fill="#FEFECE" filter="url(#fo1dxcp7he0f2)" height="61.8359" id="Display" style="stroke: #A80036; stroke-width: 1.5;" width="73" x="109.5" y="8"/><ellipse cx="124.5" cy="24" fill="#ADD1B2" rx="11" ry="11" style="stroke: #A80036; stroke-width: 1.0;"/><path d="M127.2656,19.875 Q127.4219,19.6563 127.6094,19.5469 Q127.7969,19.4375 128.0156,19.4375 Q128.3906,19.4375 128.625,19.7031 Q128.8594,19.9531 128.8594,20.5625 L128.8594,22.0156 Q128.8594,22.625 128.625,22.8906 Q128.3906,23.1563 128.0156,23.1563 Q127.6719,23.1563 127.4688,22.9531 Q127.2656,22.7656 127.1563,22.25 Q127.1094,21.8906 126.9219,21.7031 Q126.5938,21.3281 125.9844,21.1094 Q125.375,20.8906 124.75,20.8906 Q123.9844,20.8906 123.3438,21.2188 Q122.7188,21.5469 122.2188,22.2969 Q121.7344,23.0469 121.7344,24.0781 L121.7344,25.1719 Q121.7344,26.4063 122.625,27.2344 Q123.5156,28.0469 125.1094,28.0469 Q126.0469,28.0469 126.7031,27.7969 Q127.0938,27.6406 127.5156,27.2031 Q127.7813,26.9375 127.9219,26.8594 Q128.0781,26.7813 128.2813,26.7813 Q128.6094,26.7813 128.8594,27.0469 Q129.125,27.2969 129.125,27.6406 Q129.125,27.9844 128.7813,28.3906 Q128.2813,28.9688 127.4844,29.2969 Q126.4063,29.75 125.1094,29.75 Q123.5938,29.75 122.3906,29.125 Q121.4063,28.625 120.7188,27.5625 Q120.0313,26.4844 120.0313,25.2031 L120.0313,24.0469 Q120.0313,22.7188 120.6406,21.5781 Q121.2656,20.4219 122.3594,19.8125 Q123.4531,19.1875 124.6875,19.1875 Q125.4219,19.1875 126.0625,19.3594 Q126.7188,19.5156 127.2656,19.875 Z "/><text fill="#000000" font-family="sans-serif" font-size="12" lengthAdjust="spacingAndGlyphs" textLength="41" x="138.5" y="28.9102">Display</text><line style="stroke: #A80036; stroke-width: 1.5;" x1="110.5" x2="181.5" y1="40" y2="40"/><line style="stroke: #A80036; stroke-width: 1.5;" x1="110.5" x2="181.5" y1="48" y2="48"/><text fill="#000000" font-family="sans-serif" font-size="11" lengthAdjust="spacingAndGlyphs" textLength="55" x="115.5" y="63.4189">repo.read()</text><!--MD5=[c42cc2f62cf2b85ed1c672168c570fb7]
class Importer--><rect fill="#FEFECE" filter="url(#fo1dxcp7he0f2)" height="61.8359" id="Importer" style="stroke: #A80036; stroke-width: 1.5;" width="78" x="218" y="8"/><ellipse cx="233" cy="24" fill="#ADD1B2" rx="11" ry="11" style="stroke: #A80036; stroke-width: 1.0;"/><path d="M235.7656,19.875 Q235.9219,19.6563 236.1094,19.5469 Q236.2969,19.4375 236.5156,19.4375 Q236.8906,19.4375 237.125,19.7031 Q237.3594,19.9531 237.3594,20.5625 L237.3594,22.0156 Q237.3594,22.625 237.125,22.8906 Q236.8906,23.1563 236.5156,23.1563 Q236.1719,23.1563 235.9688,22.9531 Q235.7656,22.7656 235.6563,22.25 Q235.6094,21.8906 235.4219,21.7031 Q235.0938,21.3281 234.4844,21.1094 Q233.875,20.8906 233.25,20.8906 Q232.4844,20.8906 231.8438,21.2188 Q231.2188,21.5469 230.7188,22.2969 Q230.2344,23.0469 230.2344,24.0781 L230.2344,25.1719 Q230.2344,26.4063 231.125,27.2344 Q232.0156,28.0469 233.6094,28.0469 Q234.5469,28.0469 235.2031,27.7969 Q235.5938,27.6406 236.0156,27.2031 Q236.2813,26.9375 236.4219,26.8594 Q236.5781,26.7813 236.7813,26.7813 Q237.1094,26.7813 237.3594,27.0469 Q237.625,27.2969 237.625,27.6406 Q237.625,27.9844 237.2813,28.3906 Q236.7813,28.9688 235.9844,29.2969 Q234.9063,29.75 233.6094,29.75 Q232.0938,29.75 230.8906,29.125 Q229.9063,28.625 229.2188,27.5625 Q228.5313,26.4844 228.5313,25.2031 L228.5313,24.0469 Q228.5313,22.7188 229.1406,21.5781 Q229.7656,20.4219 230.8594,19.8125 Q231.9531,19.1875 233.1875,19.1875 Q233.9219,19.1875 234.5625,19.3594 Q235.2188,19.5156 235.7656,19.875 Z "/><text fill="#000000" font-family="sans-serif" font-size="12" lengthAdjust="spacingAndGlyphs" textLength="46" x="247" y="28.9102">Importer</text><line style="stroke: #A80036; stroke-width: 1.5;" x1="219" x2="295" y1="40" y2="40"/><line style="stroke: #A80036; stroke-width: 1.5;" x1="219" x2="295" y1="48" y2="48"/><text fill="#000000" font-family="sans-serif" font-size="11" lengthAdjust="spacingAndGlyphs" textLength="58" x="224" y="63.4189">repo.write()</text><!--MD5=[f861e974b9f6fce32c5dc7b299618253]
link Importer to Repository--><path d="M230.695,70.097 C216.152,86.736 197.87,107.653 182.017,125.791 " fill="none" id="Importer-&gt;Repository" style="stroke: #A80036; stroke-width: 1.0; stroke-dasharray: 7.0,7.0;"/><polygon fill="#A80036" points="178.465,129.855,187.3995,125.7108,181.7554,126.0903,181.3759,120.4461,178.465,129.855" style="stroke: #A80036; stroke-width: 1.0;"/><!--MD5=[7f008f4476ffdc8e5fc3a63da4ffdb0b]
link Printer to Repository--><path d="M65.1205,70.097 C79.0083,86.736 96.4664,107.653 111.605,125.791 " fill="none" id="Printer-&gt;Repository" style="stroke: #A80036; stroke-width: 1.0; stroke-dasharray: 7.0,7.0;"/><polygon fill="#A80036" points="114.997,129.855,112.3003,120.3825,111.7928,126.0166,106.1588,125.5092,114.997,129.855" style="stroke: #A80036; stroke-width: 1.0;"/><!--MD5=[d88a195d6077afb6126166c9cca01378]
link Display to Repository--><path d="M146,70.097 C146,86.317 146,106.601 146,124.414 " fill="none" id="Display-&gt;Repository" style="stroke: #A80036; stroke-width: 1.0; stroke-dasharray: 7.0,7.0;"/><polygon fill="#A80036" points="146,129.855,150,120.855,146,124.855,142,120.855,146,129.855" style="stroke: #A80036; stroke-width: 1.0;"/><!--MD5=[912a6e2e0408883bd8db5050aa68b304]
reverse link Repository to DataRepository--><path d="M146,226.7431 C146,240.5359 146,254.4879 146,265.6782 " fill="none" id="Repository&lt;-DataRepository" style="stroke: #A80036; stroke-width: 1.0;"/><polygon fill="none" points="139,226.311,146,206.311,153,226.3109,139,226.311" style="stroke: #A80036; stroke-width: 1.0;"/><!--MD5=[204d09aa3cd99d534750fef97c3a91c1]
@startuml interface-segregation

interface Repository {
    read()
    write()
}

class DataRepository

class Printer{
    repo.read()
}
class Display {
    repo.read()
}
class Importer {
    repo.write()
}

Importer ..> Repository
Printer ..> Repository
Display ..> Repository

Repository <|- - DataRepository

@enduml

PlantUML version 1.2020.10(Sun May 17 11:35:57 CEST 2020)
(GPL source distribution)
Java Runtime: OpenJDK Runtime Environment
JVM: OpenJDK 64-Bit Server VM
Java Version: 11.0.6+10
Operating System: Windows 10
Default Encoding: Cp1252
Language: de
Country: DE
--></g></svg>