<?xml version="1.0" encoding="UTF-8" standalone="no"?><svg xmlns="http://www.w3.org/2000/svg" xmlns:xlink="http://www.w3.org/1999/xlink" contentScriptType="application/ecmascript" contentStyleType="text/css" height="325px" preserveAspectRatio="none" style="width:210px;height:325px;" version="1.1" viewBox="0 0 210 325" width="210px" zoomAndPan="magnify"><defs><filter height="300%" id="f182ax2js4e9id" width="300%" x="-1" y="-1"><feGaussianBlur result="blurOut" stdDeviation="2.0"/><feColorMatrix in="blurOut" result="blurOut2" type="matrix" values="0 0 0 0 0 0 0 0 0 0 0 0 0 0 0 0 0 0 .4 0"/><feOffset dx="4.0" dy="4.0" in="blurOut2" result="blurOut3"/><feBlend in="SourceGraphic" in2="blurOut3" mode="normal"/></filter></defs><g><!--MD5=[7340ddc93ee3d3f5fef34806a115f504]
class Graphic--><rect fill="#FEFECE" filter="url(#f182ax2js4e9id)" height="61.8359" id="Graphic" style="stroke: #A80036; stroke-width: 1.5;" width="75" x="69.5" y="8"/><ellipse cx="84.5" cy="24" fill="#ADD1B2" rx="11" ry="11" style="stroke: #A80036; stroke-width: 1.0;"/><path d="M87.2656,19.875 Q87.4219,19.6563 87.6094,19.5469 Q87.7969,19.4375 88.0156,19.4375 Q88.3906,19.4375 88.625,19.7031 Q88.8594,19.9531 88.8594,20.5625 L88.8594,22.0156 Q88.8594,22.625 88.625,22.8906 Q88.3906,23.1563 88.0156,23.1563 Q87.6719,23.1563 87.4688,22.9531 Q87.2656,22.7656 87.1563,22.25 Q87.1094,21.8906 86.9219,21.7031 Q86.5938,21.3281 85.9844,21.1094 Q85.375,20.8906 84.75,20.8906 Q83.9844,20.8906 83.3438,21.2188 Q82.7188,21.5469 82.2188,22.2969 Q81.7344,23.0469 81.7344,24.0781 L81.7344,25.1719 Q81.7344,26.4063 82.625,27.2344 Q83.5156,28.0469 85.1094,28.0469 Q86.0469,28.0469 86.7031,27.7969 Q87.0938,27.6406 87.5156,27.2031 Q87.7813,26.9375 87.9219,26.8594 Q88.0781,26.7813 88.2813,26.7813 Q88.6094,26.7813 88.8594,27.0469 Q89.125,27.2969 89.125,27.6406 Q89.125,27.9844 88.7813,28.3906 Q88.2813,28.9688 87.4844,29.2969 Q86.4063,29.75 85.1094,29.75 Q83.5938,29.75 82.3906,29.125 Q81.4063,28.625 80.7188,27.5625 Q80.0313,26.4844 80.0313,25.2031 L80.0313,24.0469 Q80.0313,22.7188 80.6406,21.5781 Q81.2656,20.4219 82.3594,19.8125 Q83.4531,19.1875 84.6875,19.1875 Q85.4219,19.1875 86.0625,19.3594 Q86.7188,19.5156 87.2656,19.875 Z "/><text fill="#000000" font-family="sans-serif" font-size="12" lengthAdjust="spacingAndGlyphs" textLength="43" x="98.5" y="28.9102">Graphic</text><line style="stroke: #A80036; stroke-width: 1.5;" x1="70.5" x2="143.5" y1="40" y2="40"/><line style="stroke: #A80036; stroke-width: 1.5;" x1="70.5" x2="143.5" y1="48" y2="48"/><text fill="#000000" font-family="sans-serif" font-size="11" lengthAdjust="spacingAndGlyphs" textLength="34" x="75.5" y="63.4189">draw()</text><!--MD5=[b5313cd49da22b0744b541f414f8445e]
class Rectangle--><rect fill="#FEFECE" filter="url(#f182ax2js4e9id)" height="48" id="Rectangle" style="stroke: #A80036; stroke-width: 1.5;" width="88" x="6" y="144"/><ellipse cx="21" cy="160" fill="#ADD1B2" rx="11" ry="11" style="stroke: #A80036; stroke-width: 1.0;"/><path d="M23.7656,155.875 Q23.9219,155.6563 24.1094,155.5469 Q24.2969,155.4375 24.5156,155.4375 Q24.8906,155.4375 25.125,155.7031 Q25.3594,155.9531 25.3594,156.5625 L25.3594,158.0156 Q25.3594,158.625 25.125,158.8906 Q24.8906,159.1563 24.5156,159.1563 Q24.1719,159.1563 23.9688,158.9531 Q23.7656,158.7656 23.6563,158.25 Q23.6094,157.8906 23.4219,157.7031 Q23.0938,157.3281 22.4844,157.1094 Q21.875,156.8906 21.25,156.8906 Q20.4844,156.8906 19.8438,157.2188 Q19.2188,157.5469 18.7188,158.2969 Q18.2344,159.0469 18.2344,160.0781 L18.2344,161.1719 Q18.2344,162.4063 19.125,163.2344 Q20.0156,164.0469 21.6094,164.0469 Q22.5469,164.0469 23.2031,163.7969 Q23.5938,163.6406 24.0156,163.2031 Q24.2813,162.9375 24.4219,162.8594 Q24.5781,162.7813 24.7813,162.7813 Q25.1094,162.7813 25.3594,163.0469 Q25.625,163.2969 25.625,163.6406 Q25.625,163.9844 25.2813,164.3906 Q24.7813,164.9688 23.9844,165.2969 Q22.9063,165.75 21.6094,165.75 Q20.0938,165.75 18.8906,165.125 Q17.9063,164.625 17.2188,163.5625 Q16.5313,162.4844 16.5313,161.2031 L16.5313,160.0469 Q16.5313,158.7188 17.1406,157.5781 Q17.7656,156.4219 18.8594,155.8125 Q19.9531,155.1875 21.1875,155.1875 Q21.9219,155.1875 22.5625,155.3594 Q23.2188,155.5156 23.7656,155.875 Z "/><text fill="#000000" font-family="sans-serif" font-size="12" lengthAdjust="spacingAndGlyphs" textLength="56" x="35" y="164.9102">Rectangle</text><line style="stroke: #A80036; stroke-width: 1.5;" x1="7" x2="93" y1="176" y2="176"/><line style="stroke: #A80036; stroke-width: 1.5;" x1="7" x2="93" y1="184" y2="184"/><!--MD5=[22fb4e6350dbcc13f4be459709017985]
class Ellipse--><rect fill="#FEFECE" filter="url(#f182ax2js4e9id)" height="75.6719" id="Ellipse" style="stroke: #A80036; stroke-width: 1.5;" width="70" x="129" y="130"/><ellipse cx="144" cy="146" fill="#ADD1B2" rx="11" ry="11" style="stroke: #A80036; stroke-width: 1.0;"/><path d="M146.7656,141.875 Q146.9219,141.6563 147.1094,141.5469 Q147.2969,141.4375 147.5156,141.4375 Q147.8906,141.4375 148.125,141.7031 Q148.3594,141.9531 148.3594,142.5625 L148.3594,144.0156 Q148.3594,144.625 148.125,144.8906 Q147.8906,145.1563 147.5156,145.1563 Q147.1719,145.1563 146.9688,144.9531 Q146.7656,144.7656 146.6563,144.25 Q146.6094,143.8906 146.4219,143.7031 Q146.0938,143.3281 145.4844,143.1094 Q144.875,142.8906 144.25,142.8906 Q143.4844,142.8906 142.8438,143.2188 Q142.2188,143.5469 141.7188,144.2969 Q141.2344,145.0469 141.2344,146.0781 L141.2344,147.1719 Q141.2344,148.4063 142.125,149.2344 Q143.0156,150.0469 144.6094,150.0469 Q145.5469,150.0469 146.2031,149.7969 Q146.5938,149.6406 147.0156,149.2031 Q147.2813,148.9375 147.4219,148.8594 Q147.5781,148.7813 147.7813,148.7813 Q148.1094,148.7813 148.3594,149.0469 Q148.625,149.2969 148.625,149.6406 Q148.625,149.9844 148.2813,150.3906 Q147.7813,150.9688 146.9844,151.2969 Q145.9063,151.75 144.6094,151.75 Q143.0938,151.75 141.8906,151.125 Q140.9063,150.625 140.2188,149.5625 Q139.5313,148.4844 139.5313,147.2031 L139.5313,146.0469 Q139.5313,144.7188 140.1406,143.5781 Q140.7656,142.4219 141.8594,141.8125 Q142.9531,141.1875 144.1875,141.1875 Q144.9219,141.1875 145.5625,141.3594 Q146.2188,141.5156 146.7656,141.875 Z "/><text fill="#000000" font-family="sans-serif" font-size="12" lengthAdjust="spacingAndGlyphs" textLength="38" x="158" y="150.9102">Ellipse</text><line style="stroke: #A80036; stroke-width: 1.5;" x1="130" x2="198" y1="162" y2="162"/><line style="stroke: #A80036; stroke-width: 1.5;" x1="130" x2="198" y1="170" y2="170"/><text fill="#000000" font-family="sans-serif" font-size="11" lengthAdjust="spacingAndGlyphs" textLength="41" x="135" y="185.4189">scaleX()</text><text fill="#000000" font-family="sans-serif" font-size="11" lengthAdjust="spacingAndGlyphs" textLength="42" x="135" y="199.2549">scaleY()</text><!--MD5=[a7f9118cae7621dd25d25149752faef0]
class Circle--><rect fill="#FEFECE" filter="url(#f182ax2js4e9id)" height="48" id="Circle" style="stroke: #A80036; stroke-width: 1.5;" width="64" x="132" y="266"/><ellipse cx="147" cy="282" fill="#ADD1B2" rx="11" ry="11" style="stroke: #A80036; stroke-width: 1.0;"/><path d="M149.7656,277.875 Q149.9219,277.6563 150.1094,277.5469 Q150.2969,277.4375 150.5156,277.4375 Q150.8906,277.4375 151.125,277.7031 Q151.3594,277.9531 151.3594,278.5625 L151.3594,280.0156 Q151.3594,280.625 151.125,280.8906 Q150.8906,281.1563 150.5156,281.1563 Q150.1719,281.1563 149.9688,280.9531 Q149.7656,280.7656 149.6563,280.25 Q149.6094,279.8906 149.4219,279.7031 Q149.0938,279.3281 148.4844,279.1094 Q147.875,278.8906 147.25,278.8906 Q146.4844,278.8906 145.8438,279.2188 Q145.2188,279.5469 144.7188,280.2969 Q144.2344,281.0469 144.2344,282.0781 L144.2344,283.1719 Q144.2344,284.4063 145.125,285.2344 Q146.0156,286.0469 147.6094,286.0469 Q148.5469,286.0469 149.2031,285.7969 Q149.5938,285.6406 150.0156,285.2031 Q150.2813,284.9375 150.4219,284.8594 Q150.5781,284.7813 150.7813,284.7813 Q151.1094,284.7813 151.3594,285.0469 Q151.625,285.2969 151.625,285.6406 Q151.625,285.9844 151.2813,286.3906 Q150.7813,286.9688 149.9844,287.2969 Q148.9063,287.75 147.6094,287.75 Q146.0938,287.75 144.8906,287.125 Q143.9063,286.625 143.2188,285.5625 Q142.5313,284.4844 142.5313,283.2031 L142.5313,282.0469 Q142.5313,280.7188 143.1406,279.5781 Q143.7656,278.4219 144.8594,277.8125 Q145.9531,277.1875 147.1875,277.1875 Q147.9219,277.1875 148.5625,277.3594 Q149.2188,277.5156 149.7656,277.875 Z "/><text fill="#000000" font-family="sans-serif" font-size="12" lengthAdjust="spacingAndGlyphs" textLength="32" x="161" y="286.9102">Circle</text><line style="stroke: #A80036; stroke-width: 1.5;" x1="133" x2="195" y1="298" y2="298"/><line style="stroke: #A80036; stroke-width: 1.5;" x1="133" x2="195" y1="306" y2="306"/><!--MD5=[2b893bbd84c958200b997e4aea9eef60]
reverse link Graphic to Rectangle--><path d="M85.2134,88.542 C76.6886,107.536 67.314,128.423 60.3822,143.868 " fill="none" id="Graphic&lt;-Rectangle" style="stroke: #A80036; stroke-width: 1.0;"/><polygon fill="none" points="78.9161,85.477,93.4918,70.097,91.6886,91.21,78.9161,85.477" style="stroke: #A80036; stroke-width: 1.0;"/><!--MD5=[acf2afe2c2996f9d360c534074256e32]
reverse link Graphic to Ellipse--><path d="M128.781,88.53 C134.933,102.238 141.529,116.932 147.329,129.855 " fill="none" id="Graphic&lt;-Ellipse" style="stroke: #A80036; stroke-width: 1.0;"/><polygon fill="none" points="122.311,91.21,120.508,70.097,135.084,85.477,122.311,91.21" style="stroke: #A80036; stroke-width: 1.0;"/><!--MD5=[2824345f5a189d04984162a0e78db7c1]
reverse link Ellipse to Circle--><path d="M164,226.7431 C164,240.5359 164,254.4879 164,265.6782 " fill="none" id="Ellipse&lt;-Circle" style="stroke: #A80036; stroke-width: 1.0;"/><polygon fill="none" points="157,226.311,164,206.311,171,226.3109,157,226.311" style="stroke: #A80036; stroke-width: 1.0;"/><!--MD5=[8d08207bb2d207a41dc633e7ae885f4b]
@startuml liskov

class Graphic {
    draw()
}

class Rectangle {

}

class Ellipse {
    scaleX()
    scaleY()
}

class Circle {

}


Graphic <|- - Rectangle
Graphic <|- - Ellipse
Ellipse <|- - Circle

@enduml

PlantUML version 1.2020.10(Sun May 17 11:35:57 CEST 2020)
(GPL source distribution)
Java Runtime: OpenJDK Runtime Environment
JVM: OpenJDK 64-Bit Server VM
Java Version: 11.0.6+10
Operating System: Windows 10
Default Encoding: Cp1252
Language: de
Country: DE
--></g></svg>