<?xml version="1.0" encoding="UTF-8" standalone="no"?><svg xmlns="http://www.w3.org/2000/svg" xmlns:xlink="http://www.w3.org/1999/xlink" contentScriptType="application/ecmascript" contentStyleType="text/css" height="339px" preserveAspectRatio="none" style="width:309px;height:339px;" version="1.1" viewBox="0 0 309 339" width="309px" zoomAndPan="magnify"><defs><filter height="300%" id="f13831a4p64zl9" width="300%" x="-1" y="-1"><feGaussianBlur result="blurOut" stdDeviation="2.0"/><feColorMatrix in="blurOut" result="blurOut2" type="matrix" values="0 0 0 0 0 0 0 0 0 0 0 0 0 0 0 0 0 0 .4 0"/><feOffset dx="4.0" dy="4.0" in="blurOut2" result="blurOut3"/><feBlend in="SourceGraphic" in2="blurOut3" mode="normal"/></filter></defs><g><!--MD5=[75b5a37a06e4e6946ca761c67713760b]
class SortAlgorithm--><rect fill="#FEFECE" filter="url(#f13831a4p64zl9)" height="61.8359" id="SortAlgorithm" style="stroke: #A80036; stroke-width: 1.5;" width="107" x="98.5" y="158"/><ellipse cx="113.5" cy="174" fill="#B4A7E5" rx="11" ry="11" style="stroke: #A80036; stroke-width: 1.0;"/><path d="M114.4531,170.6406 L114.4531,177.2969 L116.1719,177.2969 Q116.7813,177.2969 117.0469,177.5313 Q117.3125,177.7656 117.3125,178.1563 Q117.3125,178.5313 117.0469,178.7656 Q116.7813,179 116.1719,179 L111.0313,179 Q110.4219,179 110.1563,178.7656 Q109.8906,178.5313 109.8906,178.1406 Q109.8906,177.7656 110.1563,177.5313 Q110.4219,177.2969 111.0313,177.2969 L112.75,177.2969 L112.75,170.6406 L111.0313,170.6406 Q110.4219,170.6406 110.1563,170.4063 Q109.8906,170.1719 109.8906,169.7813 Q109.8906,169.4063 110.1563,169.1719 Q110.4219,168.9375 111.0313,168.9375 L116.1719,168.9375 Q116.7813,168.9375 117.0469,169.1719 Q117.3125,169.4063 117.3125,169.7813 Q117.3125,170.1719 117.0469,170.4063 Q116.7813,170.6406 116.1719,170.6406 L114.4531,170.6406 Z "/><text fill="#000000" font-family="sans-serif" font-size="12" font-style="italic" lengthAdjust="spacingAndGlyphs" textLength="75" x="127.5" y="178.9102">SortAlgorithm</text><line style="stroke: #A80036; stroke-width: 1.5;" x1="99.5" x2="204.5" y1="190" y2="190"/><line style="stroke: #A80036; stroke-width: 1.5;" x1="99.5" x2="204.5" y1="198" y2="198"/><text fill="#000000" font-family="sans-serif" font-size="11" lengthAdjust="spacingAndGlyphs" textLength="56" x="104.5" y="213.4189">sort(array);</text><!--MD5=[500199353f67df45419cc9a6586ba553]
class QuickSort--><rect fill="#FEFECE" filter="url(#f13831a4p64zl9)" height="48" id="QuickSort" style="stroke: #A80036; stroke-width: 1.5;" width="85" x="47.5" y="280"/><ellipse cx="62.5" cy="296" fill="#ADD1B2" rx="11" ry="11" style="stroke: #A80036; stroke-width: 1.0;"/><path d="M65.2656,291.875 Q65.4219,291.6563 65.6094,291.5469 Q65.7969,291.4375 66.0156,291.4375 Q66.3906,291.4375 66.625,291.7031 Q66.8594,291.9531 66.8594,292.5625 L66.8594,294.0156 Q66.8594,294.625 66.625,294.8906 Q66.3906,295.1563 66.0156,295.1563 Q65.6719,295.1563 65.4688,294.9531 Q65.2656,294.7656 65.1563,294.25 Q65.1094,293.8906 64.9219,293.7031 Q64.5938,293.3281 63.9844,293.1094 Q63.375,292.8906 62.75,292.8906 Q61.9844,292.8906 61.3438,293.2188 Q60.7188,293.5469 60.2188,294.2969 Q59.7344,295.0469 59.7344,296.0781 L59.7344,297.1719 Q59.7344,298.4063 60.625,299.2344 Q61.5156,300.0469 63.1094,300.0469 Q64.0469,300.0469 64.7031,299.7969 Q65.0938,299.6406 65.5156,299.2031 Q65.7813,298.9375 65.9219,298.8594 Q66.0781,298.7813 66.2813,298.7813 Q66.6094,298.7813 66.8594,299.0469 Q67.125,299.2969 67.125,299.6406 Q67.125,299.9844 66.7813,300.3906 Q66.2813,300.9688 65.4844,301.2969 Q64.4063,301.75 63.1094,301.75 Q61.5938,301.75 60.3906,301.125 Q59.4063,300.625 58.7188,299.5625 Q58.0313,298.4844 58.0313,297.2031 L58.0313,296.0469 Q58.0313,294.7188 58.6406,293.5781 Q59.2656,292.4219 60.3594,291.8125 Q61.4531,291.1875 62.6875,291.1875 Q63.4219,291.1875 64.0625,291.3594 Q64.7188,291.5156 65.2656,291.875 Z "/><text fill="#000000" font-family="sans-serif" font-size="12" lengthAdjust="spacingAndGlyphs" textLength="53" x="76.5" y="300.9102">QuickSort</text><line style="stroke: #A80036; stroke-width: 1.5;" x1="48.5" x2="131.5" y1="312" y2="312"/><line style="stroke: #A80036; stroke-width: 1.5;" x1="48.5" x2="131.5" y1="320" y2="320"/><!--MD5=[4470f398350dbdcb65208a86d6ef793f]
class BubbleSort--><rect fill="#FEFECE" filter="url(#f13831a4p64zl9)" height="48" id="BubbleSort" style="stroke: #A80036; stroke-width: 1.5;" width="93" x="167.5" y="280"/><ellipse cx="182.5" cy="296" fill="#ADD1B2" rx="11" ry="11" style="stroke: #A80036; stroke-width: 1.0;"/><path d="M185.2656,291.875 Q185.4219,291.6563 185.6094,291.5469 Q185.7969,291.4375 186.0156,291.4375 Q186.3906,291.4375 186.625,291.7031 Q186.8594,291.9531 186.8594,292.5625 L186.8594,294.0156 Q186.8594,294.625 186.625,294.8906 Q186.3906,295.1563 186.0156,295.1563 Q185.6719,295.1563 185.4688,294.9531 Q185.2656,294.7656 185.1563,294.25 Q185.1094,293.8906 184.9219,293.7031 Q184.5938,293.3281 183.9844,293.1094 Q183.375,292.8906 182.75,292.8906 Q181.9844,292.8906 181.3438,293.2188 Q180.7188,293.5469 180.2188,294.2969 Q179.7344,295.0469 179.7344,296.0781 L179.7344,297.1719 Q179.7344,298.4063 180.625,299.2344 Q181.5156,300.0469 183.1094,300.0469 Q184.0469,300.0469 184.7031,299.7969 Q185.0938,299.6406 185.5156,299.2031 Q185.7813,298.9375 185.9219,298.8594 Q186.0781,298.7813 186.2813,298.7813 Q186.6094,298.7813 186.8594,299.0469 Q187.125,299.2969 187.125,299.6406 Q187.125,299.9844 186.7813,300.3906 Q186.2813,300.9688 185.4844,301.2969 Q184.4063,301.75 183.1094,301.75 Q181.5938,301.75 180.3906,301.125 Q179.4063,300.625 178.7188,299.5625 Q178.0313,298.4844 178.0313,297.2031 L178.0313,296.0469 Q178.0313,294.7188 178.6406,293.5781 Q179.2656,292.4219 180.3594,291.8125 Q181.4531,291.1875 182.6875,291.1875 Q183.4219,291.1875 184.0625,291.3594 Q184.7188,291.5156 185.2656,291.875 Z "/><text fill="#000000" font-family="sans-serif" font-size="12" lengthAdjust="spacingAndGlyphs" textLength="61" x="196.5" y="300.9102">BubbleSort</text><line style="stroke: #A80036; stroke-width: 1.5;" x1="168.5" x2="259.5" y1="312" y2="312"/><line style="stroke: #A80036; stroke-width: 1.5;" x1="168.5" x2="259.5" y1="320" y2="320"/><!--MD5=[3265fe36980fb766de0887c3b0bed38f]
class Sorter--><rect fill="#FEFECE" filter="url(#f13831a4p64zl9)" height="89.5078" id="Sorter" style="stroke: #A80036; stroke-width: 1.5;" width="292" x="6" y="8"/><ellipse cx="131.25" cy="24" fill="#ADD1B2" rx="11" ry="11" style="stroke: #A80036; stroke-width: 1.0;"/><path d="M134.0156,19.875 Q134.1719,19.6563 134.3594,19.5469 Q134.5469,19.4375 134.7656,19.4375 Q135.1406,19.4375 135.375,19.7031 Q135.6094,19.9531 135.6094,20.5625 L135.6094,22.0156 Q135.6094,22.625 135.375,22.8906 Q135.1406,23.1563 134.7656,23.1563 Q134.4219,23.1563 134.2188,22.9531 Q134.0156,22.7656 133.9063,22.25 Q133.8594,21.8906 133.6719,21.7031 Q133.3438,21.3281 132.7344,21.1094 Q132.125,20.8906 131.5,20.8906 Q130.7344,20.8906 130.0938,21.2188 Q129.4688,21.5469 128.9688,22.2969 Q128.4844,23.0469 128.4844,24.0781 L128.4844,25.1719 Q128.4844,26.4063 129.375,27.2344 Q130.2656,28.0469 131.8594,28.0469 Q132.7969,28.0469 133.4531,27.7969 Q133.8438,27.6406 134.2656,27.2031 Q134.5313,26.9375 134.6719,26.8594 Q134.8281,26.7813 135.0313,26.7813 Q135.3594,26.7813 135.6094,27.0469 Q135.875,27.2969 135.875,27.6406 Q135.875,27.9844 135.5313,28.3906 Q135.0313,28.9688 134.2344,29.2969 Q133.1563,29.75 131.8594,29.75 Q130.3438,29.75 129.1406,29.125 Q128.1563,28.625 127.4688,27.5625 Q126.7813,26.4844 126.7813,25.2031 L126.7813,24.0469 Q126.7813,22.7188 127.3906,21.5781 Q128.0156,20.4219 129.1094,19.8125 Q130.2031,19.1875 131.4375,19.1875 Q132.1719,19.1875 132.8125,19.3594 Q133.4688,19.5156 134.0156,19.875 Z "/><text fill="#000000" font-family="sans-serif" font-size="12" lengthAdjust="spacingAndGlyphs" textLength="33" x="151.75" y="28.9102">Sorter</text><line style="stroke: #A80036; stroke-width: 1.5;" x1="7" x2="297" y1="40" y2="40"/><line style="stroke: #A80036; stroke-width: 1.5;" x1="7" x2="297" y1="48" y2="48"/><text fill="#000000" font-family="sans-serif" font-size="11" lengthAdjust="spacingAndGlyphs" textLength="132" x="12" y="63.4189">sort(array, algorithmName);</text><text fill="#000000" font-family="sans-serif" font-size="11" lengthAdjust="spacingAndGlyphs" textLength="0" x="15" y="77.2549"/><text fill="#000000" font-family="sans-serif" font-size="11" lengthAdjust="spacingAndGlyphs" textLength="280" x="12" y="91.0908">registerAlgorithm(algorithmName, algorithm: SortAlgorithm)</text><!--MD5=[57ac741e5274f9ad0b1bb74a71ec4807]
link Sorter to SortAlgorithm--><path d="M152,98.248 C152,115.934 152,136.02 152,152.7 " fill="none" id="Sorter-&gt;SortAlgorithm" style="stroke: #A80036; stroke-width: 1.0;"/><polygon fill="#A80036" points="152,157.761,156,148.761,152,152.761,148,148.761,152,157.761" style="stroke: #A80036; stroke-width: 1.0;"/><text fill="#000000" font-family="sans-serif" font-size="13" lengthAdjust="spacingAndGlyphs" textLength="20" x="129.9375" y="147.2162">0..*</text><!--MD5=[cd914fe011e20461301e5ad2bf796ba0]
reverse link SortAlgorithm to QuickSort--><path d="M125.697,237.939 C117.742,252.438 109.364,267.7071 102.7255,279.8067 " fill="none" id="SortAlgorithm&lt;-QuickSort" style="stroke: #A80036; stroke-width: 1.0;"/><polygon fill="none" points="119.628,234.4489,135.385,220.282,131.902,241.1833,119.628,234.4489" style="stroke: #A80036; stroke-width: 1.0;"/><!--MD5=[0e573d56ecbf39d0d555b52b90b985d8]
reverse link SortAlgorithm to BubbleSort--><path d="M178.303,237.939 C186.258,252.438 194.636,267.7071 201.274,279.8067 " fill="none" id="SortAlgorithm&lt;-BubbleSort" style="stroke: #A80036; stroke-width: 1.0;"/><polygon fill="none" points="172.098,241.1833,168.615,220.282,184.372,234.4489,172.098,241.1833" style="stroke: #A80036; stroke-width: 1.0;"/><!--MD5=[7d3395af47bb415b6f18e0033c3b475e]
@startuml openclosed

interface SortAlgorithm {
    sort(array);
}

class QuickSort
class BubbleSort

class Sorter {

    sort(array, algorithmName);

    registerAlgorithm(algorithmName, algorithm: SortAlgorithm)
}

Sorter - -> "0..*" SortAlgorithm

SortAlgorithm <|- - QuickSort
SortAlgorithm <|- - BubbleSort


@enduml

PlantUML version 1.2020.10(Sun May 17 11:35:57 CEST 2020)
(GPL source distribution)
Java Runtime: OpenJDK Runtime Environment
JVM: OpenJDK 64-Bit Server VM
Java Version: 11.0.6+10
Operating System: Windows 10
Default Encoding: Cp1252
Language: de
Country: DE
--></g></svg>