<?xml version="1.0" encoding="UTF-8" standalone="no"?><svg xmlns="http://www.w3.org/2000/svg" xmlns:xlink="http://www.w3.org/1999/xlink" contentScriptType="application/ecmascript" contentStyleType="text/css" height="80px" preserveAspectRatio="none" style="width:247px;height:80px;" version="1.1" viewBox="0 0 247 80" width="247px" zoomAndPan="magnify"><defs><filter height="300%" id="fjt5em8vff33h" width="300%" x="-1" y="-1"><feGaussianBlur result="blurOut" stdDeviation="2.0"/><feColorMatrix in="blurOut" result="blurOut2" type="matrix" values="0 0 0 0 0 0 0 0 0 0 0 0 0 0 0 0 0 0 .4 0"/><feOffset dx="4.0" dy="4.0" in="blurOut2" result="blurOut3"/><feBlend in="SourceGraphic" in2="blurOut3" mode="normal"/></filter></defs><g><!--MD5=[1069fdaf3fc729635ca39f624d53ab3a]
class DataRepository--><rect fill="#FEFECE" filter="url(#fjt5em8vff33h)" height="48" id="DataRepository" style="stroke: #A80036; stroke-width: 1.5;" width="117" x="119.5" y="15"/><ellipse cx="134.5" cy="31" fill="#ADD1B2" rx="11" ry="11" style="stroke: #A80036; stroke-width: 1.0;"/><path d="M137.2656,26.875 Q137.4219,26.6563 137.6094,26.5469 Q137.7969,26.4375 138.0156,26.4375 Q138.3906,26.4375 138.625,26.7031 Q138.8594,26.9531 138.8594,27.5625 L138.8594,29.0156 Q138.8594,29.625 138.625,29.8906 Q138.3906,30.1563 138.0156,30.1563 Q137.6719,30.1563 137.4688,29.9531 Q137.2656,29.7656 137.1563,29.25 Q137.1094,28.8906 136.9219,28.7031 Q136.5938,28.3281 135.9844,28.1094 Q135.375,27.8906 134.75,27.8906 Q133.9844,27.8906 133.3438,28.2188 Q132.7188,28.5469 132.2188,29.2969 Q131.7344,30.0469 131.7344,31.0781 L131.7344,32.1719 Q131.7344,33.4063 132.625,34.2344 Q133.5156,35.0469 135.1094,35.0469 Q136.0469,35.0469 136.7031,34.7969 Q137.0938,34.6406 137.5156,34.2031 Q137.7813,33.9375 137.9219,33.8594 Q138.0781,33.7813 138.2813,33.7813 Q138.6094,33.7813 138.8594,34.0469 Q139.125,34.2969 139.125,34.6406 Q139.125,34.9844 138.7813,35.3906 Q138.2813,35.9688 137.4844,36.2969 Q136.4063,36.75 135.1094,36.75 Q133.5938,36.75 132.3906,36.125 Q131.4063,35.625 130.7188,34.5625 Q130.0313,33.4844 130.0313,32.2031 L130.0313,31.0469 Q130.0313,29.7188 130.6406,28.5781 Q131.2656,27.4219 132.3594,26.8125 Q133.4531,26.1875 134.6875,26.1875 Q135.4219,26.1875 136.0625,26.3594 Q136.7188,26.5156 137.2656,26.875 Z "/><text fill="#000000" font-family="sans-serif" font-size="12" lengthAdjust="spacingAndGlyphs" textLength="85" x="148.5" y="35.9102">DataRepository</text><line style="stroke: #A80036; stroke-width: 1.5;" x1="120.5" x2="235.5" y1="47" y2="47"/><line style="stroke: #A80036; stroke-width: 1.5;" x1="120.5" x2="235.5" y1="55" y2="55"/><!--MD5=[c42cc2f62cf2b85ed1c672168c570fb7]
class Importer--><rect fill="#FEFECE" filter="url(#fjt5em8vff33h)" height="61.8359" id="Importer" style="stroke: #A80036; stroke-width: 1.5;" width="78" x="6" y="8"/><ellipse cx="21" cy="24" fill="#ADD1B2" rx="11" ry="11" style="stroke: #A80036; stroke-width: 1.0;"/><path d="M23.7656,19.875 Q23.9219,19.6563 24.1094,19.5469 Q24.2969,19.4375 24.5156,19.4375 Q24.8906,19.4375 25.125,19.7031 Q25.3594,19.9531 25.3594,20.5625 L25.3594,22.0156 Q25.3594,22.625 25.125,22.8906 Q24.8906,23.1563 24.5156,23.1563 Q24.1719,23.1563 23.9688,22.9531 Q23.7656,22.7656 23.6563,22.25 Q23.6094,21.8906 23.4219,21.7031 Q23.0938,21.3281 22.4844,21.1094 Q21.875,20.8906 21.25,20.8906 Q20.4844,20.8906 19.8438,21.2188 Q19.2188,21.5469 18.7188,22.2969 Q18.2344,23.0469 18.2344,24.0781 L18.2344,25.1719 Q18.2344,26.4063 19.125,27.2344 Q20.0156,28.0469 21.6094,28.0469 Q22.5469,28.0469 23.2031,27.7969 Q23.5938,27.6406 24.0156,27.2031 Q24.2813,26.9375 24.4219,26.8594 Q24.5781,26.7813 24.7813,26.7813 Q25.1094,26.7813 25.3594,27.0469 Q25.625,27.2969 25.625,27.6406 Q25.625,27.9844 25.2813,28.3906 Q24.7813,28.9688 23.9844,29.2969 Q22.9063,29.75 21.6094,29.75 Q20.0938,29.75 18.8906,29.125 Q17.9063,28.625 17.2188,27.5625 Q16.5313,26.4844 16.5313,25.2031 L16.5313,24.0469 Q16.5313,22.7188 17.1406,21.5781 Q17.7656,20.4219 18.8594,19.8125 Q19.9531,19.1875 21.1875,19.1875 Q21.9219,19.1875 22.5625,19.3594 Q23.2188,19.5156 23.7656,19.875 Z "/><text fill="#000000" font-family="sans-serif" font-size="12" lengthAdjust="spacingAndGlyphs" textLength="46" x="35" y="28.9102">Importer</text><line style="stroke: #A80036; stroke-width: 1.5;" x1="7" x2="83" y1="40" y2="40"/><line style="stroke: #A80036; stroke-width: 1.5;" x1="7" x2="83" y1="48" y2="48"/><text fill="#000000" font-family="sans-serif" font-size="11" lengthAdjust="spacingAndGlyphs" textLength="58" x="12" y="63.4189">repo.write()</text><!--MD5=[ee3b6fe448d6146b655d548d0e3261e5]
link Importer to DataRepository--><path d="M84.2246,39 C94.2066,39 104.1885,39 114.17,39 " fill="none" id="Importer-&gt;DataRepository" style="stroke: #A80036; stroke-width: 1.0; stroke-dasharray: 7.0,7.0;"/><polygon fill="#A80036" points="119.39,39,110.39,35,114.39,39,110.39,43,119.39,39" style="stroke: #A80036; stroke-width: 1.0;"/><!--MD5=[fad8f7d2182776745c0da2b424ee60e8]
@startuml di

class DataRepository
class Importer {
    repo.write()
}

Importer .> DataRepository

@enduml

PlantUML version 1.2020.10(Sun May 17 11:35:57 CEST 2020)
(GPL source distribution)
Java Runtime: OpenJDK Runtime Environment
JVM: OpenJDK 64-Bit Server VM
Java Version: 11.0.6+10
Operating System: Windows 10
Default Encoding: Cp1252
Language: de
Country: DE
--></g></svg>